<svg width="98.257mm" height="105.03mm" version="1.1" viewBox="0 0 98.257 105.03" xmlns="http://www.w3.org/2000/svg" xmlns:cc="http://creativecommons.org/ns#" xmlns:dc="http://purl.org/dc/elements/1.1/" xmlns:rdf="http://www.w3.org/1999/02/22-rdf-syntax-ns#">
 <defs></defs>
 <metadata>
  <rdf:RDF>
   <cc:Work rdf:about="">
    <dc:format>image/svg+xml</dc:format>
    <dc:type rdf:resource="http://purl.org/dc/dcmitype/StillImage"/>
    <dc:title/>
   </cc:Work>
  </rdf:RDF>
 </metadata>
 <g transform="translate(-350.71 -136.64)">
  <g>
   <g transform="matrix(.35278 0 0 .35278 289.67 85.552)" fill="#af7576">
    <g transform="translate(158.48 390.14)">
     <path d="m109.16-245.33c40.883 0 71.488 10.227 91.812 30.672 20.332 20.438 30.5 50.18 30.5 89.219 0 25.18-4.9688 47.242-14.906 66.188-9.9297 18.938-24.309 33.547-43.141 43.828-18.824 10.281-41.289 15.422-67.391 15.422l-20.094-0.34375c-12.938-0.46875-22.414-0.70312-28.422-0.70312-18.938 0-33.262 0.35156-42.969 1.0469v-6.9375c8.3203-0.45703 14.391-1.3789 18.203-2.7656 3.8125-1.3828 6.4102-4.0391 7.7969-7.9688 1.3828-3.9258 2.0781-10.281 2.0781-19.062v-171.87c0-8.7695-0.69531-15.117-2.0781-19.047-1.3867-3.9258-3.9844-6.582-7.7969-7.9688-3.8125-1.3828-9.8828-2.3125-18.203-2.7812v-6.9219c8.0938 0.6875 19.301 1.0312 33.625 1.0312l29.453-0.34375c15.707-0.45704 26.219-0.6875 31.531-0.6875zm-8.6719 6.2344c-7.1563 0-12.527 0.80859-16.109 2.4219-3.5859 1.6172-6.0703 4.5078-7.4531 8.6719-1.3867 4.1562-2.0781 10.391-2.0781 18.703v173.27c0 8.3125 0.69141 14.547 2.0781 18.703 1.3828 4.1562 3.8672 7.0469 7.4531 8.6719 3.582 1.6172 9.0703 2.4219 16.469 2.4219 24.477 0 43.766-4.4453 57.859-13.344 14.094-8.8945 23.969-21.891 29.625-38.984 5.6641-17.094 8.5-38.922 8.5-65.484 0-26.57-3.1211-48.227-9.3594-64.969-6.2422-16.75-16.352-29.281-30.328-37.594-13.969-8.3203-32.855-12.484-56.656-12.484z"/>
    </g>
   </g>
   <g transform="matrix(.35278 0 0 .35278 289.67 85.552)" fill="#f9eae6">
    <g transform="translate(238.05 442.54)">
     <path d="m190.34-28.203c5.375 13.875 13.094 21.039 23.156 21.484v6.7188c-8.9492-0.66406-20.918-1-35.906-1-19.25 0-33.578 0.33594-42.984 1v-6.7188c8.5078-0.44531 14.609-1.5078 18.297-3.1875 3.6953-1.6758 5.5469-4.7539 5.5469-9.2344 0-3.8008-1.3438-9.0547-4.0312-15.766l-20.469-55.062h-81.25l-13.766 35.578c-4.4688 12.094-6.7031 21.273-6.7031 27.531 0 6.9375 2.3984 11.977 7.2031 15.109 4.8125 3.1367 12.145 4.8125 22 5.0312v6.7188c-12.762-0.66406-25.633-1-38.609-1-10.074 0-18.465 0.33594-25.172 1v-6.7188c11.188-2.6875 20.023-12.422 26.516-29.203l78.891-203.44h5.375zm-59.078-68.484-37.609-100.38-38.266 100.38z"/>
    </g>
   </g>
   <g transform="matrix(.35278 0 0 .35278 289.67 85.552)" fill="#c88e83">
    <g transform="translate(227.59 441.81)">
     <path d="m190.34-28.203c5.375 13.875 13.094 21.039 23.156 21.484v6.7188c-8.9492-0.66406-20.918-1-35.906-1-19.25 0-33.578 0.33594-42.984 1v-6.7188c8.5078-0.44531 14.609-1.5078 18.297-3.1875 3.6953-1.6758 5.5469-4.7539 5.5469-9.2344 0-3.8008-1.3438-9.0547-4.0312-15.766l-20.469-55.062h-81.25l-13.766 35.578c-4.4688 12.094-6.7031 21.273-6.7031 27.531 0 6.9375 2.3984 11.977 7.2031 15.109 4.8125 3.1367 12.145 4.8125 22 5.0312v6.7188c-12.762-0.66406-25.633-1-38.609-1-10.074 0-18.465 0.33594-25.172 1v-6.7188c11.188-2.6875 20.023-12.422 26.516-29.203l78.891-203.44h5.375zm-59.078-68.484-37.609-100.38-38.266 100.38z"/>
    </g>
   </g>
  </g>
 </g>
</svg>
